<svg xmlns="http://www.w3.org/2000/svg" version="1.1" xmlns:xlink="http://www.w3.org/1999/xlink" xmlns:svgjs="http://svgjs.dev/svgjs" width="91.77" height="91.77"><svg version="1.0" id="SvgjsSvg1252" xmlns="http://www.w3.org/2000/svg" xmlns:xlink="http://www.w3.org/1999/xlink" x="0px" y="0px" viewBox="0 0 91.77 91.77" style="enable-background:new 0 0 91.77 91.77;" xml:space="preserve">
<style type="text/css">
	.st0{fill:#FFFFFF;}
</style>
<rect x="0" y="0" class="st0" width="91.77" height="91.77"></rect>
<path class="st0" d="M55.39,82.84L55.39,82.84c-1.06,0-2.05-0.11-2.97-0.31C53.34,82.73,54.34,82.84,55.39,82.84z"></path>
<polygon class="st0" points="73.23,36.05 61.78,67.51 73.23,36.05 "></polygon>
<path class="st0" d="M60.68,68.32c-0.11,0-0.21-0.02-0.29-0.06C60.47,68.3,60.57,68.32,60.68,68.32L60.68,68.32z"></path>
<g>
	<path d="M33.84,30.56l-11.1,30.49l-0.35,0.97c-0.16,0.45-0.65,0.81-1.1,0.81c-0.45,0-0.68-0.36-0.51-0.81l1.97-5.41l9.48-26.06
		l5.87-16.14h-1.61H23.58L6.25,62.02C3.17,70.47,7.55,77.35,16,77.35c2.23,0,4.52-0.49,6.74-1.35c6.21-2.4,11.9-7.76,14.17-13.98
		l11.45-31.46H33.84z"></path>
	<path d="M71.98,14.42l-5.87,16.14L54.66,62.02c-0.08,0.22-0.24,0.42-0.44,0.57c-0.2,0.15-0.43,0.24-0.66,0.24h0
		c-0.11,0-0.21-0.02-0.29-0.06c-0.25-0.12-0.34-0.41-0.22-0.74L64.5,30.56H49.97L38.52,62.02c-0.19,0.53-0.36,1.05-0.49,1.57
		c-0.4,1.54-0.55,3.02-0.47,4.4c0.05,0.92,0.21,1.79,0.47,2.6c0.25,0.82,0.61,1.58,1.05,2.27c0.44,0.69,0.97,1.32,1.59,1.87
		c0.61,0.55,1.31,1.03,2.09,1.41c0.78,0.39,1.63,0.69,2.55,0.89c0.92,0.2,1.92,0.31,2.97,0.31c2.11,0,4.28-0.43,6.4-1.21
		c1.06-0.39,2.1-0.86,3.12-1.41c0.51-0.28,1.01-0.57,1.5-0.88c1.48-0.94,2.88-2.04,4.15-3.26c0.42-0.41,0.83-0.83,1.23-1.26
		c0.79-0.87,1.51-1.79,2.16-2.75c0.97-1.44,1.77-2.97,2.35-4.55l14.24-39.11l3.09-8.49h-9.35H71.98z"></path>
</g>
<polygon class="st0" points="87.75,36.05 90.54,28.4 76.3,67.51 "></polygon>
</svg><style>@media (prefers-color-scheme: light) { :root { filter: none; } }
@media (prefers-color-scheme: dark) { :root { filter: invert(100%); } }
</style></svg>