<svg version="1.0" xmlns="http://www.w3.org/2000/svg" xmlns:xlink="http://www.w3.org/1999/xlink" x="0px" y="0px"
viewBox="0 0 345.09 178.3" style="enable-background:new 0 0 345.09 178.3;" xml:space="preserve">
<path class="bg" d="M320.27,0L320.27,0L320.27,0h-3.36h-35.32h-1.68h-3.36l-1.22,3.36l-0.61,1.68l-5.94,16.33L252.99,0v0v0h-3.36H214.3h-1.68
h-3.36l-1.22,3.36l-0.61,1.68l-10.41,28.6h-20.12L152.07,0v0v0h-3.36h-1.68H111.7h-3.36l-1.22,3.36l-6.55,18.01L84.78,0v0v0h-3.36
h-1.68H44.41h-3.36l-1.22,3.36L2.48,105.97c-4.42,12.14-2.73,22.97,3.46,30.07l22.56,30.59l0.02,0
c4.41,7.19,12.57,11.67,23.39,11.67c13.51,0,28.16-6.97,39.13-17.98l4.77,6.43c4.46,7.23,12.72,11.55,23.38,11.55
c13.52,0,28.19-6.98,39.17-18.01l4.65,6.29c4.44,7.33,12.73,11.72,23.47,11.72c13.49,0,28.13-6.96,39.1-17.95l5.15,6.97l0.04-0.02
c4.54,6.89,12.61,11,22.98,11c21.33,0,45-17.36,52.77-38.69l37.35-102.61l1.22-3.36L320.27,0z"/>
<path class="letter" d="M42.85,105.97c-0.34,0.93-1.36,1.68-2.29,1.68s-1.41-0.75-1.07-1.68l23.88-65.6L75.61,6.73H45.33L9.21,105.97
c-6.41,17.62,2.7,31.96,20.33,31.96s37.18-14.34,43.59-31.96L97,40.37H66.73L42.85,105.97z"/>
<path class="letter" d="M110.13,105.97c-0.34,0.93-1.36,1.68-2.29,1.68s-1.41-0.75-1.07-1.68l23.88-65.6l12.24-33.64h-30.28
l-11.02,30.28l-25.1,68.96c-6.41,17.62,2.7,31.96,20.33,31.96s37.18-14.34,43.59-31.96l23.88-65.6h-30.28L110.13,105.97z"/>
<path class="letter" d="M211.06,105.97c-6.41,17.62,2.7,31.96,20.33,31.96s37.18-14.34,43.59-31.96L311.1,6.73h-30.28l-12.24,33.64
l-23.88,65.6c-0.34,0.93-1.36,1.68-2.29,1.68s-1.41-0.75-1.07-1.68l23.88-65.6h-30.28L211.06,105.97z"/>
<path class="letter" d="M201.29,40.37l-23.88,65.6c-0.34,0.93-1.36,1.68-2.29,1.68s-1.41-0.75-1.07-1.68l23.88-65.6h-30.28l-23.88,65.6
c-6.41,17.62,2.7,31.96,20.33,31.96s37.18-14.34,43.59-31.96l25.1-68.96l11.02-30.28h-30.28L201.29,40.37z"/>
</svg>