<svg width="513" height="427" viewBox="0 0 513 427" fill="none" xmlns="http://www.w3.org/2000/svg">
<g clip-path="url(#clip0_436_16)">
<path d="M264.23 282.46V262.97C276.12 255.2 295.35 235.52 285.37 231.83C285.37 231.83 285.24 231.79 285.01 231.71C284.87 231.67 284.73 231.62 284.58 231.59C282.1 230.89 273.58 228.91 257.23 228.91C240.89 228.91 232.37 230.9 229.88 231.59C229.73 231.63 229.59 231.67 229.45 231.71C229.21 231.78 229.09 231.83 229.09 231.83C219.11 235.52 238.34 255.21 250.23 262.97V282.46C227.2 285.94 208.82 306.36 204.95 332.45C204.15 337.83 207.87 342.7 212.63 342.7H301.82C306.58 342.7 310.3 337.82 309.5 332.45C305.64 306.37 287.26 285.94 264.23 282.46Z" fill="black"/>
<path d="M187.15 214.09C184.42 211.36 179.98 211.36 177.25 214.09L165.98 225.36L154.71 214.09C151.98 211.36 147.54 211.36 144.81 214.09C142.08 216.82 142.08 221.26 144.81 223.99L156.08 235.26L144.81 246.53C142.08 249.26 142.08 253.7 144.81 256.43C146.18 257.8 147.97 258.48 149.76 258.48C151.55 258.48 153.34 257.8 154.71 256.43L165.98 245.16L177.25 256.43C178.62 257.8 180.41 258.48 182.2 258.48C183.99 258.48 185.78 257.8 187.15 256.43C189.88 253.7 189.88 249.26 187.15 246.53L175.88 235.26L187.15 223.99C189.88 221.26 189.88 216.83 187.15 214.09Z" fill="black"/>
<path d="M369.65 214.09C366.92 211.36 362.48 211.36 359.75 214.09L348.48 225.36L337.21 214.09C334.48 211.36 330.04 211.36 327.31 214.09C324.58 216.82 324.58 221.26 327.31 223.99L338.58 235.26L327.31 246.53C324.58 249.26 324.58 253.7 327.31 256.43C328.68 257.8 330.47 258.48 332.26 258.48C334.05 258.48 335.84 257.8 337.21 256.43L348.48 245.16L359.75 256.43C361.12 257.8 362.91 258.48 364.7 258.48C366.49 258.48 368.28 257.8 369.65 256.43C372.38 253.7 372.38 249.26 369.65 246.53L358.38 235.26L369.65 223.99C372.38 221.26 372.38 216.83 369.65 214.09Z" fill="black"/>
<path d="M405.65 61.6699C400.02 60.7899 367.97 98.8999 376.5 106.95C376.5 106.95 376.59 107.03 376.75 107.16C376.85 107.24 376.95 107.32 377.05 107.39C378.8 108.67 384.87 112.51 397.38 114.47C409.88 116.43 416.84 114.63 418.9 113.94C419.02 113.9 419.14 113.86 419.26 113.81C419.46 113.74 419.56 113.69 419.56 113.69C430.14 108.64 411.28 62.5499 405.65 61.6699Z" fill="black"/>
<path d="M108.81 61.6699C103.18 62.5499 84.3103 108.64 94.9003 113.7C94.9003 113.7 95.0102 113.75 95.2002 113.82C95.3202 113.87 95.4402 113.91 95.5602 113.95C97.6102 114.64 104.57 116.44 117.08 114.48C129.59 112.52 135.66 108.68 137.41 107.4C137.52 107.33 137.62 107.25 137.71 107.17C137.88 107.04 137.96 106.96 137.96 106.96C146.49 98.8999 114.44 60.7899 108.81 61.6699Z" fill="black"/>
<path d="M507.21 261.95C511.05 261.53 513.83 258.07 513.41 254.23C512.99 250.39 509.51 247.61 505.69 248.03L498.73 248.79C501.64 208.64 494.83 162.4 478.24 110.31C477.55 107.69 470.97 83.1599 459.26 57.9899C442.16 21.2199 423 2.0599 402.32 1.0399C372.7 -0.420102 344.81 34.8799 317.09 108.9H197.35C169.63 34.8799 141.71 -0.430102 112.12 1.0399C91.4403 2.0599 72.2903 21.2199 55.1803 57.9899C43.4703 83.1599 36.8903 107.69 36.2003 110.31C19.6103 162.39 12.8003 208.64 15.7103 248.79L8.75025 248.03C4.91025 247.61 1.45025 250.39 1.03025 254.23C0.610251 258.07 3.39025 261.53 7.23025 261.95L17.1803 263.04C18.8803 275.57 21.6203 287.45 25.3703 298.69L11.9403 301.88C8.18025 302.77 5.85025 306.55 6.75025 310.31C7.51025 313.53 10.3903 315.69 13.5503 315.69C14.0903 315.69 14.6303 315.63 15.1703 315.5L30.3703 311.89C35.9003 324.84 42.9002 336.84 51.4202 347.84C79.2402 383.76 123.78 408.93 180.22 420.64C209.96 426.81 235.44 427.77 248.44 427.77C253.08 427.77 256.13 427.65 257.21 427.6C261.32 427.8 293.83 429.02 334.2 420.64C390.65 408.93 435.19 383.76 463 347.84C471.52 336.84 478.52 324.84 484.05 311.89L499.25 315.5C499.79 315.63 500.34 315.69 500.87 315.69C504.04 315.69 506.91 313.52 507.67 310.31C508.56 306.55 506.24 302.78 502.48 301.88L489.06 298.69C492.81 287.46 495.55 275.58 497.25 263.04L507.21 261.95ZM475.39 295.43L466.94 293.42C463.17 292.53 459.4 294.85 458.51 298.61C457.62 302.37 459.94 306.14 463.7 307.04L470.22 308.59C465.32 319.59 459.25 329.81 451.99 339.2C419.54 381.13 368.69 399.13 331.74 406.84C291.17 415.31 257.94 413.6 257.61 413.58L257.22 413.56L256.83 413.58C256.5 413.6 223.26 415.3 182.7 406.84C145.75 399.13 94.9003 381.13 62.4503 339.2C55.1803 329.81 49.1103 319.59 44.2203 308.59L50.7403 307.04C54.5003 306.15 56.8303 302.37 55.9303 298.61C55.0403 294.85 51.2603 292.52 47.5003 293.42L39.0503 295.43C35.7203 285.71 33.2102 275.43 31.5502 264.6L43.5603 265.91C43.8203 265.94 44.0703 265.95 44.3303 265.95C47.8603 265.95 50.8903 263.29 51.2803 259.71C51.7003 255.87 48.9203 252.41 45.0803 251.99L29.8703 250.33C26.5803 211.39 33.1403 165.98 49.5903 114.38L49.7003 114.01C56.7003 86.9899 81.7003 16.5399 112.8 15.0199C128.6 14.2399 154.09 31.5399 185.9 118.31L187.58 122.9H187.86L193.25 159.77C193.25 165.22 197.71 169.68 203.16 169.68C208.61 169.68 213.07 165.22 213.07 159.77L217.75 122.9H241.7L248.25 167.77C248.25 173.22 252.71 177.68 258.16 177.68C263.61 177.68 268.07 173.22 268.07 167.77L273.77 122.9H297.21L302.6 159.77C302.6 165.22 307.06 169.68 312.51 169.68C317.96 169.68 322.42 165.22 322.42 159.77L327.21 122.01L328.56 118.32C360.37 31.5499 385.83 14.2499 401.66 15.0299C432.77 16.5499 457.76 86.9999 464.76 114.02L464.87 114.39C481.32 165.98 487.88 211.39 484.59 250.34L469.37 252C465.53 252.42 462.75 255.88 463.17 259.72C463.56 263.31 466.59 265.96 470.12 265.96C470.37 265.96 470.63 265.95 470.89 265.92L482.9 264.61C481.23 275.43 478.72 285.71 475.39 295.43Z" fill="black"/>
</g>
<defs>
<clipPath id="clip0_436_16">
<rect width="512.46" height="426.76" fill="white"/>
</clipPath>
</defs>
</svg>
