<svg class="dead-cat-mask" preserveAspectRatio="xMidYMid meet" viewBox="0 0 513 426" xmlns="http://www.w3.org/2000/svg" width="0" height="0" style="position:fixed">
  <clipPath id="dead-cat-mask" clipPathUnits="objectBoundingBox">
      <!-- <path d="M507.21 260.95C511.05 260.53 513.83 257.07 513.41 253.23C512.99 249.39 509.51 246.61 505.69 247.03L498.73 247.79C501.64 207.64 494.83 161.4 478.24 109.31C477.55 106.69 470.97 82.1599 459.26 56.9899C442.16 20.2199 423 1.0599 402.32 0.0398982C372.7 -1.4201 344.81 33.8799 317.09 107.9H197.35C169.63 33.8799 141.71 -1.4301 112.12 0.0398982C91.4403 1.0599 72.2903 20.2199 55.1803 56.9899C43.4703 82.1599 36.8903 106.69 36.2003 109.31C19.6103 161.39 12.8003 207.64 15.7103 247.79L8.75025 247.03C4.91025 246.61 1.45025 249.39 1.03025 253.23C0.610251 257.07 3.39025 260.53 7.23025 260.95L17.1803 262.04C18.8803 274.57 21.6203 286.45 25.3703 297.69L11.9403 300.88C8.18025 301.77 5.85025 305.55 6.75025 309.31C7.51025 312.53 10.3903 314.69 13.5503 314.69C14.0903 314.69 14.6303 314.63 15.1703 314.5L30.3703 310.89C35.9003 323.84 42.9002 335.84 51.4202 346.84C79.2402 382.76 123.78 407.93 180.22 419.64C209.96 425.81 235.44 426.77 248.44 426.77C253.08 426.77 256.13 426.65 257.21 426.6C261.32 426.8 293.83 428.02 334.2 419.64C390.65 407.93 435.19 382.76 463 346.84C471.52 335.84 478.52 323.84 484.05 310.89L499.25 314.5C499.79 314.63 500.34 314.69 500.87 314.69C504.04 314.69 506.91 312.52 507.67 309.31C508.56 305.55 506.24 301.78 502.48 300.88L489.06 297.69C492.81 286.46 495.55 274.58 497.25 262.04L507.21 260.95Z" fill="black"/> -->
      <path d="M0.9887 0.6122C0.9961 0.6116 1.0016 0.6037 1.0008 0.5949C1.0000 0.5852 0.9922 0.5784 0.9867 0.5790L0.9720 0.5810 C0.9779 0.4871 0.9655 0.3797 0.9322 0.2561C0.9310 0.2504 0.9181 0.1928 0.8956 0.1337C0.8620 0.0475 0.8240 0.0025 0.7848 0.0001C0.7269 -0.0033 0.6724 0.0795 0.6183 0.2533H0.3848C0.3306 0.0795 0.2762 -0.0034 0.2186 0.0001C0.1783 0.0025 0.1410 0.0475 0.1075 0.1337C0.0848 0.1928 0.0719 0.2504 0.0706 0.2561C0.0382 0.3797 0.0250 0.4871 0.0306 0.5810L0.0171 0.5800C0.0096 0.5784 0.0028 0.5852 0.0020 0.5948C0.0012 0.6036 0.0066 0.6116 0.0141 0.6122L0.0335 0.6153 C0.0368 0.6443 0.0422 0.6723 0.0494 0.6981 L0.0233 0.7065 C0.0160 0.7088 0.0114 0.7174 0.0132 0.7261 C0.0146 0.7339 0.0203 0.7382 0.0264 0.7382 C0.0275 0.7382 0.0285 0.7380 0.0296 0.7378 L0.0592 0.7300 C0.0700 0.7607 0.0836 0.7883 0.1002 0.8146 C0.1545 0.8980 0.2413 0.9586 0.3512 0.9851 C0.4097 0.9996 0.4590 1.0000 0.4843 1.0000 C0.4932 1.0000 0.4993 1.0000 0.5010 1.0000 C0.5092 1.0000 0.5726 1.0000 0.6512 0.9851 C0.7616 0.9586 0.8493 0.8980 0.9037 0.8146 C0.9196 0.7883 0.9326 0.7607 0.9444 0.7300 L0.9732 0.7385 C0.9742 0.7384 0.9751 0.7385 0.9764 0.7385 C0.9824 0.7385 0.9883 0.7332 0.9890 0.7261 C0.9913 0.7174 0.9866 0.7084 0.9795 0.7065 L0.9533 0.6981 C0.9606 0.6723 0.9666 0.6443 0.9692 0.6153 L0.9887 0.6122Z" fill="black"/>
  </clipPath>
</svg>
