<svg viewBox="0 0 346 179" xmlns="http://www.w3.org/2000/svg">
<path class="logo-background" d="M320.27 0H316.91H281.59H279.91H276.55L275.33 3.36L274.72 5.04L268.78 21.37L252.99 0H249.63H214.3H212.62H209.26L208.04 3.36L207.43 5.04L197.02 33.64H176.9L152.07 0H148.71H147.03H111.7H108.34L107.12 3.36L100.57 21.37L84.7798 0H81.4198H79.7398H44.4098H41.0498L39.8298 3.36L2.47981 105.97C-1.94019 118.11 -0.250185 128.94 5.93981 136.04L28.4998 166.63H28.5198C32.9298 173.82 41.0898 178.3 51.9098 178.3C65.4198 178.3 80.0698 171.33 91.0398 160.32L95.8098 166.75C100.27 173.98 108.53 178.3 119.19 178.3C132.71 178.3 147.38 171.32 158.36 160.29L163.01 166.58C167.45 173.91 175.74 178.3 186.48 178.3C199.97 178.3 214.61 171.34 225.58 160.35L230.73 167.32L230.77 167.3C235.31 174.19 243.38 178.3 253.75 178.3C275.08 178.3 298.75 160.94 306.52 139.61L343.87 37L345.09 33.64L320.27 0Z" />
<path class="logo-letter" d="M211.06 105.97C204.65 123.59 213.76 137.93 231.39 137.93C249.02 137.93 268.57 123.59 274.98 105.97L311.1 6.72998H280.82L268.58 40.37L244.7 105.97C244.36 106.9 243.34 107.65 242.41 107.65C241.48 107.65 241 106.9 241.34 105.97L265.22 40.37H234.94L211.06 105.97Z" fill="white"/>
<path class="logo-letter" d="M201.29 40.37L177.41 105.97C177.07 106.9 176.05 107.65 175.12 107.65C174.19 107.65 173.71 106.9 174.05 105.97L197.93 40.37H167.65L143.77 105.97C137.36 123.59 146.47 137.93 164.1 137.93C181.73 137.93 201.28 123.59 207.69 105.97L232.79 37.01L243.81 6.72998H213.53L201.29 40.37Z" fill="white"/>
<path class="logo-letter" d="M110.13 105.97C109.79 106.9 108.77 107.65 107.84 107.65C106.91 107.65 106.43 106.9 106.77 105.97L130.65 40.37L142.89 6.72998H112.61L101.59 37.01L76.49 105.97C70.08 123.59 79.19 137.93 96.82 137.93C114.45 137.93 134 123.59 140.41 105.97L164.29 40.37H134.01L110.13 105.97Z" fill="white"/>
<path class="logo-letter" d="M42.8502 105.97C42.5102 106.9 41.4902 107.65 40.5602 107.65C39.6302 107.65 39.1502 106.9 39.4902 105.97L63.3702 40.37L75.6102 6.72998H45.3302L9.21018 105.97C2.80018 123.59 11.9102 137.93 29.5402 137.93C47.1702 137.93 66.7202 123.59 73.1302 105.97L97.0002 40.37H66.7302L42.8502 105.97Z" fill="white"/>
</svg>
